<svg aria-hidden="true" style="position: absolute; width: 0; height: 0; overflow: hidden;" version="1.1" xmlns="http://www.w3.org/2000/svg" xmlns:xlink="http://www.w3.org/1999/xlink">
<defs>
<symbol id="icon-Vector-1" viewBox="0 0 34 32">
<path d="M30.359 3.549v24.903h-26.564v-24.903h26.564zM30.359-0.010h-26.564c-2.088 0-3.795 1.601-3.795 3.558v24.903c0 1.957 1.708 3.558 3.795 3.558h26.564c2.088 0 3.795-1.601 3.795-3.558v-24.903c0-1.957-1.708-3.558-3.795-3.558z"></path>
</symbol>
<symbol id="icon-icon-check" viewBox="0 0 32 32">
<path fill="#2196f3" style="fill: var(--color1, #2196f3)" d="M4.002 0.991h24.015c2.21 0 4.002 1.792 4.002 4.002v22.014c0 2.21-1.792 4.002-4.002 4.002h-24.015c-2.211 0-4.002-1.792-4.002-4.002v-22.014c0-2.211 1.792-4.002 4.002-4.002z"></path>
<path fill="#fff" style="fill: var(--color2, #fff); stroke: var(--color2, #fff)" stroke="#fff" stroke-linejoin="miter" stroke-linecap="butt" stroke-miterlimit="4" stroke-width="0.4" d="M7.919 16.504l-0.138-0.132-0.138 0.13-1.929 1.829 0.152 0.146 7.134 6.804 0.138-0.132 15.169-14.471-0.152-0.144-1.903-1.815-0.138 0.132-13.114 12.5-5.081-4.847z"></path>
</symbol>
<symbol id="icon-email-black-18dp" viewBox="0 0 32 32">
<path d="M26.674 5.335h-21.339c-1.467 0-2.653 1.2-2.653 2.667l-0.014 16.004c0 1.467 1.2 2.667 2.667 2.667h21.339c1.467 0 2.667-1.2 2.667-2.667v-16.004c0-1.467-1.2-2.667-2.667-2.667zM26.141 11.004l-9.428 5.893c-0.201 0.126-0.446 0.2-0.708 0.2s-0.506-0.075-0.713-0.204l0.006 0.003-9.428-5.893c-0.336-0.201-0.557-0.562-0.557-0.976 0-0.626 0.507-1.133 1.133-1.133 0.233 0 0.449 0.070 0.629 0.19l-0.004-0.003 8.936 5.587 8.936-5.589c0.176-0.118 0.392-0.188 0.625-0.188 0.626 0 1.133 0.507 1.133 1.133 0 0.413-0.221 0.775-0.552 0.973l-0.005 0.003z"></path>
</symbol>
<symbol id="icon-phone-black-18dp" viewBox="0 0 32 32">
<path d="M24.889 19.78l-3.268-0.373c-0.090-0.011-0.194-0.018-0.3-0.018-0.707 0-1.348 0.287-1.811 0.75l-2.369 2.369c-3.67-1.894-6.587-4.812-8.43-8.374l-0.051-0.108 2.383-2.378c0.464-0.463 0.75-1.104 0.75-1.811 0-0.106-0.006-0.21-0.019-0.312l0.001 0.012-0.373-3.244c-0.155-1.288-1.241-2.276-2.558-2.276-0.001 0-0.002 0-0.003 0h-2.226c-1.455 0-2.664 1.209-2.575 2.662 0.683 10.99 9.473 19.767 20.45 20.45 1.453 0.089 2.664-1.12 2.664-2.575v-2.226c0-0.004 0-0.008 0-0.012 0-1.308-0.985-2.386-2.254-2.533l-0.012-0.001z"></path>
</symbol>
<symbol id="icon-person-black-18dp" viewBox="0 0 32 32">
<path d="M16.004 16.004c2.946 0 5.335-2.388 5.335-5.335s-2.388-5.335-5.335-5.335v0c-2.946 0-5.335 2.388-5.335 5.335s2.388 5.335 5.335 5.335v0zM16.004 18.672c-3.562 0-10.67 1.787-10.67 5.335v1.334c0 0.733 0.599 1.334 1.334 1.334h18.672c0.733 0 1.334-0.601 1.334-1.334v-1.334c0-3.548-7.11-5.335-10.67-5.335z"></path>
</symbol>
<symbol id="icon-Group" viewBox="0 0 32 32">
<path d="M26.675 12.007c-0.492 0-0.953 0.134-1.351 0.368-0.157-1.339-1.284-2.368-2.651-2.369h-0c-0.65 0-1.249 0.236-1.715 0.628-0.475-0.781-1.321-1.295-2.287-1.295-0.492 0-0.952 0.133-1.348 0.365l0.013-0.007v-7.030c0.002-1.471-1.193-2.668-2.666-2.668s-2.67 1.197-2.67 2.668v17.855c0 0.334-0.22 0.508-0.316 0.566-0.1 0.063-0.221 0.101-0.351 0.101-0.109 0-0.211-0.026-0.301-0.073l0.004 0.002-4.285-2.141c-0.367-0.187-0.801-0.296-1.261-0.296-1.561 0-2.826 1.264-2.83 2.824v0.509c0 0.184 0.078 0.36 0.212 0.488l7.699 7.184c1.541 1.446 3.621 2.333 5.908 2.333 0.003 0 0.007 0 0.010 0h4.182c4.788-0.005 8.668-3.884 8.673-8.671v-8.674c0-1.471-1.197-2.668-2.67-2.668zM28.010 23.348c-0.005 4.051-3.288 7.333-7.338 7.337h-4.183c-1.863 0-3.642-0.7-5.005-1.973l-7.489-6.988v-0.22c0.002-0.823 0.67-1.49 1.493-1.49 0.243 0 0.472 0.058 0.675 0.161l-0.008-0.004 4.283 2.141c0.626 0.314 1.355 0.28 1.947-0.086 0.574-0.356 0.951-0.982 0.951-1.697 0-0.002 0-0.005 0-0.007v0-17.855c0.048-0.699 0.627-1.247 1.334-1.247s1.286 0.549 1.334 1.243l0 0.004v10.006c0 0.369 0.299 0.667 0.667 0.667s0.667-0.299 0.667-0.667v0-0.666c0.048-0.699 0.627-1.247 1.334-1.247s1.285 0.549 1.334 1.243l0 0.004v0.67c0.021 0.352 0.312 0.63 0.667 0.63 0.357 0 0.649-0.28 0.667-0.632l0-0.002v-0.010c0.051-0.697 0.628-1.242 1.334-1.242 0.709 0 1.288 0.551 1.334 1.248l0 0.004v2.001c0 0.369 0.299 0.667 0.667 0.667s0.667-0.299 0.667-0.667v0c0.029-0.715 0.615-1.283 1.334-1.283s1.305 0.569 1.334 1.281l0 0.003v8.673z"></path>
</symbol>
<symbol id="icon-icon-send" viewBox="0 0 32 32">
<path fill="#fff" style="fill: var(--color2, #fff)" d="M32.003 0l-32.003 18.002 10.228 3.787 15.775-14.788-11.999 16.188 0.009 0.003-0.012-0.003v8.814l5.735-6.691 7.267 2.691 4.999-28.003z"></path>
</symbol>
<symbol id="icon-close-black-18dp-2-1-1" viewBox="0 0 32 32">
<path d="M26.674 7.305l-1.97-1.97-7.81 7.81-7.81-7.81-1.97 1.97 7.81 7.81-7.81 7.81 1.97 1.97 7.81-7.81 7.81 7.81 1.97-1.97-7.81-7.81 7.81-7.81z"></path>
</symbol>
</defs>
</svg>
